<svg viewBox="0 0 200 200" xmlns="http://www.w3.org/2000/svg">
  <defs>
    <linearGradient id="chrome2" x1="0%" y1="100%" x2="100%" y2="0%">
      <stop offset="0%" style="stop-color:#c0c0c0;stop-opacity:0.12"/>
      <stop offset="50%" style="stop-color:#ffffff;stop-opacity:0.08"/>
      <stop offset="100%" style="stop-color:#909090;stop-opacity:0.1"/>
    </linearGradient>
  </defs>
  <path fill="url(#chrome2)" d="M39.9,-65.7C53.4,-60.3,67,-51.8,74.8,-39.5C82.6,-27.2,84.6,-11.1,82.9,4.1C81.2,19.3,75.8,33.6,66.8,44.9C57.8,56.2,45.2,64.5,31.6,70.1C18,75.7,3.4,78.6,-11.1,77.7C-25.6,76.8,-40,72.1,-52,63.3C-64,54.5,-73.6,41.6,-78.3,27C-83,12.4,-82.8,-3.9,-78.3,-18.6C-73.8,-33.3,-65,-46.4,-53.2,-52.7C-41.4,-59,-26.6,-58.5,-13.2,-60.7C0.2,-62.9,12.2,-67.8,25.4,-70.1C38.6,-72.4,53.1,-72.1,39.9,-65.7Z" transform="translate(100 100)"/>
</svg>